<?xml version="1.0" standalone="no"?>
<!DOCTYPE svg PUBLIC "-//W3C//DTD SVG 20010904//EN"
 "http://www.w3.org/TR/2001/REC-SVG-20010904/DTD/svg10.dtd">
<svg version="1.0" xmlns="http://www.w3.org/2000/svg"
 width="640.000000pt" height="640.000000pt" viewBox="0 0 640.000000 640.000000"
 preserveAspectRatio="xMidYMid meet">
<metadata>
Created by potrace 1.11, written by Peter Selinger 2001-2013
</metadata>
<g transform="translate(0.000000,640.000000) scale(0.100000,-0.100000)"
fill="#000000" stroke="none">
<path d="M0 3200 l0 -3200 3200 0 3200 0 0 3200 0 3200 -3200 0 -3200 0 0
-3200z m3382 2465 c273 -32 602 -128 815 -239 58 -30 56 -30 -83 -10 -148 21
-444 21 -589 -1 -166 -25 -276 -51 -425 -101 -312 -105 -582 -271 -824 -504
-199 -192 -339 -384 -456 -623 -539 -1102 -95 -2427 999 -2981 217 -110 457
-185 706 -221 150 -22 434 -22 594 -1 68 9 125 15 127 13 6 -6 -168 -85 -285
-129 -394 -148 -881 -188 -1311 -107 -391 74 -761 243 -1082 494 -108 86 -353
336 -437 448 -423 565 -588 1263 -461 1952 195 1055 1072 1881 2133 2009 152
19 425 19 579 1z m648 -765 c126 -13 234 -35 350 -72 103 -33 304 -126 387
-179 l52 -34 -182 0 c-151 -1 -200 -5 -287 -24 -280 -60 -517 -189 -720 -392
-204 -202 -344 -471 -396 -760 -22 -126 -22 -352 0 -478 105 -580 537 -1024
1124 -1153 78 -17 132 -22 279 -22 l182 -1 -52 -34 c-160 -103 -417 -201 -627
-237 -126 -22 -403 -25 -525 -5 -251 40 -499 135 -698 269 -715 479 -966 1398
-592 2167 171 352 465 641 816 804 182 84 338 125 584 154 64 8 214 6 305 -3z
m848 -821 c70 -291 250 -570 466 -718 109 -75 308 -151 396 -151 53 0 28 -11
-60 -26 -441 -77 -790 -520 -846 -1074 l-8 -75 -12 104 c-66 540 -405 958
-843 1037 l-96 17 77 13 c362 62 668 350 803 757 38 115 60 217 71 327 l8 75
12 -100 c7 -55 21 -138 32 -186z"/>
</g>
</svg>
