<?xml version="1.0" standalone="no"?>
<!DOCTYPE svg PUBLIC "-//W3C//DTD SVG 20010904//EN"
 "http://www.w3.org/TR/2001/REC-SVG-20010904/DTD/svg10.dtd">
<svg version="1.0" xmlns="http://www.w3.org/2000/svg"
 width="640.000000pt" height="640.000000pt" viewBox="0 0 640.000000 640.000000"
 preserveAspectRatio="xMidYMid meet">
<metadata>
Created by potrace 1.11, written by Peter Selinger 2001-2013
</metadata>
<g transform="translate(0.000000,640.000000) scale(0.100000,-0.100000)"
fill="#000000" stroke="none">
<path d="M448 5375 c-60 -15 -70 -23 -254 -204 -196 -194 -213 -227 -172 -351
12 -38 -17 -9 931 -959 356 -357 647 -655 647 -661 0 -9 -1413 -1436 -1514
-1529 -78 -72 -105 -188 -65 -281 24 -56 282 -317 345 -350 54 -27 137 -29
195 -3 34 15 273 249 1046 1021 632 633 1007 1016 1019 1040 25 53 29 122 10
179 -19 56 -14 51 -538 585 -200 203 -408 416 -462 471 -169 174 -837 855
-915 934 -41 41 -87 81 -104 89 -45 24 -119 32 -169 19z"/>
<path d="M3045 1748 c-49 -18 -106 -64 -134 -110 -25 -42 -26 -48 -29 -250 -3
-165 0 -219 12 -260 17 -60 65 -115 124 -144 36 -18 99 -19 1597 -22 1100 -2
1573 1 1604 8 59 15 113 55 148 110 l28 45 0 230 c0 258 -3 271 -72 339 -72
70 33 66 -1692 65 -1067 0 -1565 -4 -1586 -11z"/>
</g>
</svg>
